<svg width="30" height="30" viewBox="0 0 30 30" fill="none" xmlns="http://www.w3.org/2000/svg">
<path d="M10.9997 12.3335H1.66634C1.31272 12.3335 0.97358 12.193 0.723531 11.943C0.473483 11.6929 0.333008 11.3538 0.333008 11.0002V1.66683C0.333008 1.31321 0.473483 0.974068 0.723531 0.724019C0.97358 0.473971 1.31272 0.333496 1.66634 0.333496H10.9997C11.3533 0.333496 11.6924 0.473971 11.9425 0.724019C12.1925 0.974068 12.333 1.31321 12.333 1.66683V11.0002C12.333 11.3538 12.1925 11.6929 11.9425 11.943C11.6924 12.193 11.3533 12.3335 10.9997 12.3335Z" fill="#8C30F5"/>
<path d="M10.9997 29.667H1.66634C1.31272 29.667 0.97358 29.5265 0.723531 29.2765C0.473483 29.0264 0.333008 28.6873 0.333008 28.3337V19.0003C0.333008 18.6467 0.473483 18.3076 0.723531 18.0575C0.97358 17.8075 1.31272 17.667 1.66634 17.667H10.9997C11.3533 17.667 11.6924 17.8075 11.9425 18.0575C12.1925 18.3076 12.333 18.6467 12.333 19.0003V28.3337C12.333 28.6873 12.1925 29.0264 11.9425 29.2765C11.6924 29.5265 11.3533 29.667 10.9997 29.667Z" fill="#8C30F5"/>
<path d="M16.333 1.66699H29.6663V4.33366H16.333V1.66699Z" fill="#2EC5CE"/>
<path d="M29.6663 19H16.333V21.6667H29.6663V19Z" fill="#2EC5CE"/>
<path d="M29.6663 25.667H16.333V28.3337H29.6663V25.667Z" fill="#D6B1FF"/>
<path d="M29.6663 8.3335H16.333V11.0002H29.6663V8.3335Z" fill="#D6B1FF"/>
</svg>
