<svg width="30" height="30" fill="none" xmlns="http://www.w3.org/2000/svg"><path d="M11 12.334H1.666A1.334 1.334 0 01.333 11V1.667A1.333 1.333 0 011.666.333H11a1.333 1.333 0 011.333 1.334V11A1.334 1.334 0 0111 12.334zm0 17.333H1.666a1.334 1.334 0 01-1.333-1.333V19a1.333 1.333 0 011.333-1.333H11A1.334 1.334 0 0112.333 19v9.334A1.334 1.334 0 0111 29.667z" fill="#8C30F5"/><path d="M16.333 1.667h13.333v2.667H16.333V1.667zM29.666 19H16.333v2.667h13.333V19z" fill="#2EC5CE"/><path d="M29.666 25.667H16.333v2.667h13.333v-2.667zm0-17.333H16.333V11h13.333V8.334z" fill="#D6B1FF"/></svg>